<?xml version="1.0" encoding="UTF-8" standalone="no"?>
<!DOCTYPE svg PUBLIC "-//W3C//DTD SVG 1.1//EN"
 "http://www.w3.org/Graphics/SVG/1.1/DTD/svg11.dtd">
<!-- Generated by graphviz version 2.44.0 (20200408.0750)
 -->
<!-- Title: DeadManSwitch Pages: 1 -->
<svg width="374pt" height="294pt"
 viewBox="0.00 0.00 374.41 293.74" xmlns="http://www.w3.org/2000/svg" xmlns:xlink="http://www.w3.org/1999/xlink">
<g id="graph0" class="graph" transform="scale(1 1) rotate(0) translate(4 289.74)">
<title>DeadManSwitch</title>
<polygon fill="white" stroke="transparent" points="-4,4 -4,-289.74 370.41,-289.74 370.41,4 -4,4"/>
<!-- report -->
<g id="node1" class="node">
<title>report</title>
<ellipse fill="none" stroke="black" cx="50.91" cy="-258.87" rx="50.82" ry="26.74"/>
<text text-anchor="middle" x="50.91" y="-262.67" font-family="Times,serif" font-size="14.00">Report</text>
<text text-anchor="middle" x="50.91" y="-247.67" font-family="Times,serif" font-size="14.00">Liveliness</text>
</g>
<!-- checkOwnerKey -->
<g id="node3" class="node">
<title>checkOwnerKey</title>
<polygon fill="none" stroke="black" points="110.91,-195 54.91,-142 110.91,-89 166.91,-142 110.91,-195"/>
<text text-anchor="middle" x="110.91" y="-153.3" font-family="Times,serif" font-size="14.00">Sender</text>
<text text-anchor="middle" x="110.91" y="-138.3" font-family="Times,serif" font-size="14.00">is</text>
<text text-anchor="middle" x="110.91" y="-123.3" font-family="Times,serif" font-size="14.00">owner?</text>
</g>
<!-- report&#45;&gt;checkOwnerKey -->
<g id="edge1" class="edge">
<title>report&#45;&gt;checkOwnerKey</title>
<path fill="none" stroke="black" d="M64.08,-232.66C71.06,-219.3 79.83,-202.5 87.9,-187.07"/>
<polygon fill="black" stroke="black" points="91.01,-188.66 92.54,-178.17 84.81,-185.41 91.01,-188.66"/>
</g>
<!-- other -->
<g id="node2" class="node">
<title>other</title>
<ellipse fill="none" stroke="black" cx="175.91" cy="-258.87" rx="56.64" ry="26.74"/>
<text text-anchor="middle" x="175.91" y="-262.67" font-family="Times,serif" font-size="14.00">Other</text>
<text text-anchor="middle" x="175.91" y="-247.67" font-family="Times,serif" font-size="14.00">interactions</text>
</g>
<!-- other&#45;&gt;checkOwnerKey -->
<g id="edge2" class="edge">
<title>other&#45;&gt;checkOwnerKey</title>
<path fill="none" stroke="black" d="M161.65,-232.66C153.9,-218.97 144.11,-201.67 135.2,-185.92"/>
<polygon fill="black" stroke="black" points="138.05,-183.85 130.08,-176.87 131.95,-187.29 138.05,-183.85"/>
</g>
<!-- updateLiveliness -->
<g id="node4" class="node">
<title>updateLiveliness</title>
<polygon fill="none" stroke="black" points="165.91,-38 55.91,-38 55.91,0 165.91,0 165.91,-38"/>
<text text-anchor="middle" x="110.91" y="-22.8" font-family="Times,serif" font-size="14.00">Update the last</text>
<text text-anchor="middle" x="110.91" y="-7.8" font-family="Times,serif" font-size="14.00">report timestamp</text>
</g>
<!-- checkOwnerKey&#45;&gt;updateLiveliness -->
<g id="edge3" class="edge">
<title>checkOwnerKey&#45;&gt;updateLiveliness</title>
<path fill="none" stroke="black" d="M110.91,-88.98C110.91,-75.06 110.91,-60.52 110.91,-48.4"/>
<polygon fill="black" stroke="black" points="114.41,-48.03 110.91,-38.03 107.41,-48.03 114.41,-48.03"/>
<text text-anchor="middle" x="120.41" y="-59.8" font-family="Times,serif" font-size="14.00">yes</text>
</g>
<!-- ownerIsDeceased -->
<g id="node5" class="node">
<title>ownerIsDeceased</title>
<ellipse fill="none" stroke="black" cx="305.91" cy="-258.87" rx="50.41" ry="26.74"/>
<text text-anchor="middle" x="305.91" y="-262.67" font-family="Times,serif" font-size="14.00">Owner is</text>
<text text-anchor="middle" x="305.91" y="-247.67" font-family="Times,serif" font-size="14.00">deceased?</text>
</g>
<!-- ownerDeceasedCondition -->
<g id="node6" class="node">
<title>ownerDeceasedCondition</title>
<polygon fill="none" stroke="black" points="366.41,-168.5 245.41,-168.5 245.41,-115.5 366.41,-115.5 366.41,-168.5"/>
<text text-anchor="middle" x="305.91" y="-153.3" font-family="Times,serif" font-size="14.00">Age of last report</text>
<text text-anchor="middle" x="305.91" y="-138.3" font-family="Times,serif" font-size="14.00">timestamp exceeds</text>
<text text-anchor="middle" x="305.91" y="-123.3" font-family="Times,serif" font-size="14.00">checkin frequency</text>
</g>
<!-- ownerIsDeceased&#45;&gt;ownerDeceasedCondition -->
<g id="edge4" class="edge">
<title>ownerIsDeceased&#45;&gt;ownerDeceasedCondition</title>
<path fill="none" stroke="black" d="M305.91,-231.8C305.91,-216.13 305.91,-195.95 305.91,-178.79"/>
<polygon fill="black" stroke="black" points="309.41,-178.57 305.91,-168.57 302.41,-178.57 309.41,-178.57"/>
</g>
</g>
</svg>
