<?xml version="1.0" encoding="UTF-8" standalone="no"?>
<!DOCTYPE svg PUBLIC "-//W3C//DTD SVG 1.1//EN"
 "http://www.w3.org/Graphics/SVG/1.1/DTD/svg11.dtd">
<!-- Generated by graphviz version 2.44.0 (20200408.0750)
 -->
<!-- Title: DeadManSwitch Pages: 1 -->
<svg width="794pt" height="578pt"
 viewBox="0.00 0.00 793.75 577.74" xmlns="http://www.w3.org/2000/svg" xmlns:xlink="http://www.w3.org/1999/xlink">
<g id="graph0" class="graph" transform="scale(1 1) rotate(0) translate(4 573.74)">
<title>DeadManSwitch</title>
<polygon fill="white" stroke="transparent" points="-4,4 -4,-573.74 789.75,-573.74 789.75,4 -4,4"/>
<!-- report -->
<g id="node1" class="node">
<title>report</title>
<ellipse fill="none" stroke="black" cx="50.91" cy="-542.87" rx="50.82" ry="26.74"/>
<text text-anchor="middle" x="50.91" y="-546.67" font-family="Times,serif" font-size="14.00">Report</text>
<text text-anchor="middle" x="50.91" y="-531.67" font-family="Times,serif" font-size="14.00">Liveliness</text>
</g>
<!-- checkOwnerKey -->
<g id="node3" class="node">
<title>checkOwnerKey</title>
<polygon fill="none" stroke="black" points="175.91,-479 119.91,-426 175.91,-373 231.91,-426 175.91,-479"/>
<text text-anchor="middle" x="175.91" y="-437.3" font-family="Times,serif" font-size="14.00">Sender</text>
<text text-anchor="middle" x="175.91" y="-422.3" font-family="Times,serif" font-size="14.00">is</text>
<text text-anchor="middle" x="175.91" y="-407.3" font-family="Times,serif" font-size="14.00">owner?</text>
</g>
<!-- report&#45;&gt;checkOwnerKey -->
<g id="edge1" class="edge">
<title>report&#45;&gt;checkOwnerKey</title>
<path fill="none" stroke="black" d="M75.61,-519.18C94.11,-502.17 119.7,-478.66 140.39,-459.64"/>
<polygon fill="black" stroke="black" points="142.78,-462.2 147.78,-452.86 138.05,-457.04 142.78,-462.2"/>
</g>
<!-- other -->
<g id="node2" class="node">
<title>other</title>
<ellipse fill="none" stroke="black" cx="175.91" cy="-542.87" rx="56.64" ry="26.74"/>
<text text-anchor="middle" x="175.91" y="-546.67" font-family="Times,serif" font-size="14.00">Other</text>
<text text-anchor="middle" x="175.91" y="-531.67" font-family="Times,serif" font-size="14.00">interactions</text>
</g>
<!-- other&#45;&gt;checkOwnerKey -->
<g id="edge2" class="edge">
<title>other&#45;&gt;checkOwnerKey</title>
<path fill="none" stroke="black" d="M175.91,-515.8C175.91,-507.83 175.91,-498.7 175.91,-489.39"/>
<polygon fill="black" stroke="black" points="179.41,-489.26 175.91,-479.26 172.41,-489.26 179.41,-489.26"/>
</g>
<!-- updateLiveliness -->
<g id="node4" class="node">
<title>updateLiveliness</title>
<polygon fill="none" stroke="black" points="230.91,-303 120.91,-303 120.91,-265 230.91,-265 230.91,-303"/>
<text text-anchor="middle" x="175.91" y="-287.8" font-family="Times,serif" font-size="14.00">Update the last</text>
<text text-anchor="middle" x="175.91" y="-272.8" font-family="Times,serif" font-size="14.00">report timestamp</text>
</g>
<!-- checkOwnerKey&#45;&gt;updateLiveliness -->
<g id="edge3" class="edge">
<title>checkOwnerKey&#45;&gt;updateLiveliness</title>
<path fill="none" stroke="black" d="M175.91,-372.87C175.91,-352.84 175.91,-330.73 175.91,-313.69"/>
<polygon fill="black" stroke="black" points="179.41,-313.31 175.91,-303.31 172.41,-313.31 179.41,-313.31"/>
<text text-anchor="middle" x="185.41" y="-343.8" font-family="Times,serif" font-size="14.00">yes</text>
</g>
<!-- initiateExecutorship -->
<g id="node5" class="node">
<title>initiateExecutorship</title>
<ellipse fill="none" stroke="black" cx="313.91" cy="-542.87" rx="62.45" ry="26.74"/>
<text text-anchor="middle" x="313.91" y="-546.67" font-family="Times,serif" font-size="14.00">Initiate</text>
<text text-anchor="middle" x="313.91" y="-531.67" font-family="Times,serif" font-size="14.00">Executorship</text>
</g>
<!-- isDead -->
<g id="node6" class="node">
<title>isDead</title>
<polygon fill="none" stroke="black" points="374.41,-452.5 253.41,-452.5 253.41,-399.5 374.41,-399.5 374.41,-452.5"/>
<text text-anchor="middle" x="313.91" y="-437.3" font-family="Times,serif" font-size="14.00">Age of last report</text>
<text text-anchor="middle" x="313.91" y="-422.3" font-family="Times,serif" font-size="14.00">timestamp exceeds</text>
<text text-anchor="middle" x="313.91" y="-407.3" font-family="Times,serif" font-size="14.00">checkin frequency</text>
</g>
<!-- initiateExecutorship&#45;&gt;isDead -->
<g id="edge4" class="edge">
<title>initiateExecutorship&#45;&gt;isDead</title>
<path fill="none" stroke="black" d="M313.91,-515.8C313.91,-500.13 313.91,-479.95 313.91,-462.79"/>
<polygon fill="black" stroke="black" points="317.41,-462.57 313.91,-452.57 310.41,-462.57 317.41,-462.57"/>
</g>
<!-- checkExecutorExists -->
<g id="node7" class="node">
<title>checkExecutorExists</title>
<polygon fill="none" stroke="black" points="313.91,-322 248.91,-284 313.91,-246 378.91,-284 313.91,-322"/>
<text text-anchor="middle" x="313.91" y="-287.8" font-family="Times,serif" font-size="14.00">Executor</text>
<text text-anchor="middle" x="313.91" y="-272.8" font-family="Times,serif" font-size="14.00">defined?</text>
</g>
<!-- isDead&#45;&gt;checkExecutorExists -->
<g id="edge5" class="edge">
<title>isDead&#45;&gt;checkExecutorExists</title>
<path fill="none" stroke="black" d="M313.91,-399.32C313.91,-380.57 313.91,-354.6 313.91,-332.15"/>
<polygon fill="black" stroke="black" points="317.41,-332.12 313.91,-322.12 310.41,-332.12 317.41,-332.12"/>
<text text-anchor="middle" x="323.41" y="-343.8" font-family="Times,serif" font-size="14.00">yes</text>
</g>
<!-- checkExecutorKey -->
<g id="node8" class="node">
<title>checkExecutorKey</title>
<polygon fill="none" stroke="black" points="212.91,-195 143.91,-142 212.91,-89 281.91,-142 212.91,-195"/>
<text text-anchor="middle" x="212.91" y="-153.3" font-family="Times,serif" font-size="14.00">Sender</text>
<text text-anchor="middle" x="212.91" y="-138.3" font-family="Times,serif" font-size="14.00">is</text>
<text text-anchor="middle" x="212.91" y="-123.3" font-family="Times,serif" font-size="14.00">executor?</text>
</g>
<!-- checkExecutorExists&#45;&gt;checkExecutorKey -->
<g id="edge6" class="edge">
<title>checkExecutorExists&#45;&gt;checkExecutorKey</title>
<path fill="none" stroke="black" d="M294.91,-256.67C280.36,-236.49 259.99,-208.26 243.19,-184.98"/>
<polygon fill="black" stroke="black" points="245.88,-182.71 237.19,-176.65 240.2,-186.81 245.88,-182.71"/>
<text text-anchor="middle" x="282.41" y="-216.8" font-family="Times,serif" font-size="14.00">yes</text>
</g>
<!-- checkHierKey -->
<g id="node9" class="node">
<title>checkHierKey</title>
<polygon fill="none" stroke="black" points="353.91,-195 299.91,-142 353.91,-89 407.91,-142 353.91,-195"/>
<text text-anchor="middle" x="353.91" y="-153.3" font-family="Times,serif" font-size="14.00">Sender</text>
<text text-anchor="middle" x="353.91" y="-138.3" font-family="Times,serif" font-size="14.00">is</text>
<text text-anchor="middle" x="353.91" y="-123.3" font-family="Times,serif" font-size="14.00">heir?</text>
</g>
<!-- checkExecutorExists&#45;&gt;checkHierKey -->
<g id="edge7" class="edge">
<title>checkExecutorExists&#45;&gt;checkHierKey</title>
<path fill="none" stroke="black" d="M322.99,-251.23C327.86,-234.19 333.97,-212.8 339.47,-193.54"/>
<polygon fill="black" stroke="black" points="342.9,-194.27 342.28,-183.69 336.17,-192.35 342.9,-194.27"/>
<text text-anchor="middle" x="340.91" y="-216.8" font-family="Times,serif" font-size="14.00">no</text>
</g>
<!-- enableExecutorActions -->
<g id="node11" class="node">
<title>enableExecutorActions</title>
<polygon fill="none" stroke="black" points="264.91,-38 160.91,-38 160.91,0 264.91,0 264.91,-38"/>
<text text-anchor="middle" x="212.91" y="-22.8" font-family="Times,serif" font-size="14.00">Enable executor</text>
<text text-anchor="middle" x="212.91" y="-7.8" font-family="Times,serif" font-size="14.00">actions</text>
</g>
<!-- checkExecutorKey&#45;&gt;enableExecutorActions -->
<g id="edge9" class="edge">
<title>checkExecutorKey&#45;&gt;enableExecutorActions</title>
<path fill="none" stroke="black" d="M212.91,-88.98C212.91,-75.06 212.91,-60.52 212.91,-48.4"/>
<polygon fill="black" stroke="black" points="216.41,-48.03 212.91,-38.03 209.41,-48.03 216.41,-48.03"/>
<text text-anchor="middle" x="223.41" y="-59.8" font-family="Times,serif" font-size="14.00">Yes</text>
</g>
<!-- enableInheritanceDistribution -->
<g id="node10" class="node">
<title>enableInheritanceDistribution</title>
<polygon fill="none" stroke="black" points="389.41,-38 318.41,-38 318.41,0 389.41,0 389.41,-38"/>
<text text-anchor="middle" x="353.91" y="-22.8" font-family="Times,serif" font-size="14.00">Distribute</text>
<text text-anchor="middle" x="353.91" y="-7.8" font-family="Times,serif" font-size="14.00">estate</text>
</g>
<!-- checkHierKey&#45;&gt;enableInheritanceDistribution -->
<g id="edge8" class="edge">
<title>checkHierKey&#45;&gt;enableInheritanceDistribution</title>
<path fill="none" stroke="black" d="M353.91,-88.98C353.91,-75.06 353.91,-60.52 353.91,-48.4"/>
<polygon fill="black" stroke="black" points="357.41,-48.03 353.91,-38.03 350.41,-48.03 357.41,-48.03"/>
<text text-anchor="middle" x="363.41" y="-59.8" font-family="Times,serif" font-size="14.00">yes</text>
</g>
<!-- executorEnabledDistribution -->
<g id="node12" class="node">
<title>executorEnabledDistribution</title>
<polygon fill="none" stroke="black" points="496.91,-302 441.61,-284 496.91,-266 552.21,-284 496.91,-302"/>
<text text-anchor="middle" x="496.91" y="-280.3" font-family="Times,serif" font-size="14.00">Sender?</text>
</g>
<!-- updateOwnerKeyToHeirKey -->
<g id="node13" class="node">
<title>updateOwnerKeyToHeirKey</title>
<polygon fill="none" stroke="black" points="565.91,-37 415.91,-37 415.91,-1 565.91,-1 565.91,-37"/>
<text text-anchor="middle" x="490.91" y="-15.3" font-family="Times,serif" font-size="14.00">Replace owner with heir</text>
</g>
<!-- executorEnabledDistribution&#45;&gt;updateOwnerKeyToHeirKey -->
<g id="edge12" class="edge">
<title>executorEnabledDistribution&#45;&gt;updateOwnerKeyToHeirKey</title>
<path fill="none" stroke="black" d="M493.32,-266.89C489.61,-249.32 484.05,-220.33 481.91,-195 477.94,-148.06 478.86,-136.01 481.91,-89 482.81,-75.16 484.71,-59.85 486.54,-47.17"/>
<polygon fill="black" stroke="black" points="490.01,-47.65 488.03,-37.24 483.09,-46.61 490.01,-47.65"/>
<text text-anchor="middle" x="506.41" y="-138.3" font-family="Times,serif" font-size="14.00">Executor</text>
</g>
<!-- executorMaxDurationExceeded -->
<g id="node16" class="node">
<title>executorMaxDurationExceeded</title>
<ellipse fill="none" stroke="black" cx="662.91" cy="-142" rx="122.68" ry="18"/>
<text text-anchor="middle" x="662.91" y="-138.3" font-family="Times,serif" font-size="14.00">executorMaxDurationExceeded</text>
</g>
<!-- executorEnabledDistribution&#45;&gt;executorMaxDurationExceeded -->
<g id="edge13" class="edge">
<title>executorEnabledDistribution&#45;&gt;executorMaxDurationExceeded</title>
<path fill="none" stroke="black" d="M511.64,-270.58C539.26,-247.28 599.25,-196.69 634.82,-166.69"/>
<polygon fill="black" stroke="black" points="637.49,-169.02 642.88,-159.9 632.98,-163.67 637.49,-169.02"/>
<text text-anchor="middle" x="592.41" y="-216.8" font-family="Times,serif" font-size="14.00">Heir</text>
</g>
<!-- enableDistribution -->
<g id="node14" class="node">
<title>enableDistribution</title>
<ellipse fill="none" stroke="black" cx="496.91" cy="-542.87" rx="76.09" ry="18"/>
<text text-anchor="middle" x="496.91" y="-539.17" font-family="Times,serif" font-size="14.00">enableDistribution</text>
</g>
<!-- isStillDead -->
<g id="node15" class="node">
<title>isStillDead</title>
<ellipse fill="none" stroke="black" cx="496.91" cy="-426" rx="50.09" ry="18"/>
<text text-anchor="middle" x="496.91" y="-422.3" font-family="Times,serif" font-size="14.00">isStillDead</text>
</g>
<!-- enableDistribution&#45;&gt;isStillDead -->
<g id="edge10" class="edge">
<title>enableDistribution&#45;&gt;isStillDead</title>
<path fill="none" stroke="black" d="M496.91,-524.42C496.91,-505.85 496.91,-476.19 496.91,-454.47"/>
<polygon fill="black" stroke="black" points="500.41,-454.23 496.91,-444.23 493.41,-454.23 500.41,-454.23"/>
</g>
<!-- isStillDead&#45;&gt;executorEnabledDistribution -->
<g id="edge11" class="edge">
<title>isStillDead&#45;&gt;executorEnabledDistribution</title>
<path fill="none" stroke="black" d="M496.91,-407.83C496.91,-384.01 496.91,-340.66 496.91,-312.35"/>
<polygon fill="black" stroke="black" points="500.41,-312.31 496.91,-302.31 493.41,-312.31 500.41,-312.31"/>
</g>
<!-- executorMaxDurationExceeded&#45;&gt;updateOwnerKeyToHeirKey -->
<g id="edge14" class="edge">
<title>executorMaxDurationExceeded&#45;&gt;updateOwnerKeyToHeirKey</title>
<path fill="none" stroke="black" d="M639,-124.18C609,-103.07 557.43,-66.79 523.75,-43.1"/>
<polygon fill="black" stroke="black" points="525.37,-39.96 515.18,-37.07 521.34,-45.69 525.37,-39.96"/>
<text text-anchor="middle" x="571.41" y="-59.8" font-family="Times,serif" font-size="14.00">Yes</text>
</g>
</g>
</svg>
