<?xml version="1.0" encoding="UTF-8" standalone="no"?>
<!DOCTYPE svg PUBLIC "-//W3C//DTD SVG 1.1//EN"
 "http://www.w3.org/Graphics/SVG/1.1/DTD/svg11.dtd">
<!-- Generated by graphviz version 2.44.0 (20200408.0750)
 -->
<!-- Title: LiveManSwitch Pages: 1 -->
<svg width="649pt" height="646pt"
 viewBox="0.00 0.00 649.00 645.74" xmlns="http://www.w3.org/2000/svg" xmlns:xlink="http://www.w3.org/1999/xlink">
<g id="graph0" class="graph" transform="scale(1 1) rotate(0) translate(4 641.74)">
<title>LiveManSwitch</title>
<polygon fill="white" stroke="transparent" points="-4,4 -4,-641.74 645,-641.74 645,4 -4,4"/>
<!-- register -->
<g id="node1" class="node">
<title>register</title>
<ellipse fill="none" stroke="black" cx="53" cy="-337" rx="48.19" ry="18"/>
<text text-anchor="middle" x="53" y="-333.3" font-family="Times,serif" font-size="14.00">New LMS</text>
</g>
<!-- AddUserToMonitoring -->
<g id="node2" class="node">
<title>AddUserToMonitoring</title>
<polygon fill="none" stroke="black" points="240,-218 124,-218 124,-180 240,-180 240,-218"/>
<text text-anchor="middle" x="182" y="-202.8" font-family="Times,serif" font-size="14.00">Update monitored</text>
<text text-anchor="middle" x="182" y="-187.8" font-family="Times,serif" font-size="14.00">persons database</text>
</g>
<!-- register&#45;&gt;AddUserToMonitoring -->
<g id="edge1" class="edge">
<title>register&#45;&gt;AddUserToMonitoring</title>
<path fill="none" stroke="black" d="M68.3,-319.86C90.39,-296.58 131.41,-253.33 157.68,-225.64"/>
<polygon fill="black" stroke="black" points="160.32,-227.94 164.66,-218.28 155.24,-223.12 160.32,-227.94"/>
</g>
<!-- SetupWallet -->
<g id="node4" class="node">
<title>SetupWallet</title>
<polygon fill="none" stroke="black" points="106,-233 0,-233 0,-165 106,-165 106,-233"/>
<text text-anchor="middle" x="53" y="-217.8" font-family="Times,serif" font-size="14.00">Set</text>
<text text-anchor="middle" x="53" y="-202.8" font-family="Times,serif" font-size="14.00">oracle address</text>
<text text-anchor="middle" x="53" y="-187.8" font-family="Times,serif" font-size="14.00">&amp; LMS timeout</text>
<text text-anchor="middle" x="53" y="-172.8" font-family="Times,serif" font-size="14.00">in wallet</text>
</g>
<!-- register&#45;&gt;SetupWallet -->
<g id="edge3" class="edge">
<title>register&#45;&gt;SetupWallet</title>
<path fill="none" stroke="black" d="M53,-318.78C53,-299.93 53,-268.99 53,-243.42"/>
<polygon fill="black" stroke="black" points="56.5,-243.2 53,-233.2 49.5,-243.2 56.5,-243.2"/>
</g>
<!-- SendUserMonitoringFile -->
<g id="node3" class="node">
<title>SendUserMonitoringFile</title>
<polygon fill="none" stroke="black" points="228,-128 136,-128 136,-75 228,-75 228,-128"/>
<text text-anchor="middle" x="182" y="-112.8" font-family="Times,serif" font-size="14.00">Notify</text>
<text text-anchor="middle" x="182" y="-97.8" font-family="Times,serif" font-size="14.00">Data Provider</text>
<text text-anchor="middle" x="182" y="-82.8" font-family="Times,serif" font-size="14.00">of Update</text>
</g>
<!-- AddUserToMonitoring&#45;&gt;SendUserMonitoringFile -->
<g id="edge2" class="edge">
<title>AddUserToMonitoring&#45;&gt;SendUserMonitoringFile</title>
<path fill="none" stroke="black" d="M182,-179.59C182,-167.92 182,-152.45 182,-138.43"/>
<polygon fill="black" stroke="black" points="185.5,-138.08 182,-128.08 178.5,-138.08 185.5,-138.08"/>
</g>
<!-- MonitoringReportReceived -->
<g id="node5" class="node">
<title>MonitoringReportReceived</title>
<ellipse fill="none" stroke="black" cx="314" cy="-337" rx="53.07" ry="26.74"/>
<text text-anchor="middle" x="314" y="-340.8" font-family="Times,serif" font-size="14.00">New death</text>
<text text-anchor="middle" x="314" y="-325.8" font-family="Times,serif" font-size="14.00">reported</text>
</g>
<!-- MonitoringReportReceived&#45;&gt;AddUserToMonitoring -->
<g id="edge4" class="edge">
<title>MonitoringReportReceived&#45;&gt;AddUserToMonitoring</title>
<path fill="none" stroke="black" d="M291.31,-312.62C267.79,-288.39 231.15,-250.64 206.86,-225.62"/>
<polygon fill="black" stroke="black" points="209.23,-223.03 199.75,-218.29 204.2,-227.9 209.23,-223.03"/>
</g>
<!-- SendDeathUpdatesToOracleContract -->
<g id="node6" class="node">
<title>SendDeathUpdatesToOracleContract</title>
<polygon fill="none" stroke="black" points="341,-218 287,-218 287,-180 341,-180 341,-218"/>
<text text-anchor="middle" x="314" y="-202.8" font-family="Times,serif" font-size="14.00">Notify</text>
<text text-anchor="middle" x="314" y="-187.8" font-family="Times,serif" font-size="14.00">Oracle</text>
</g>
<!-- MonitoringReportReceived&#45;&gt;SendDeathUpdatesToOracleContract -->
<g id="edge5" class="edge">
<title>MonitoringReportReceived&#45;&gt;SendDeathUpdatesToOracleContract</title>
<path fill="none" stroke="black" d="M314,-310.1C314,-286.84 314,-252.75 314,-228.68"/>
<polygon fill="black" stroke="black" points="317.5,-228.4 314,-218.4 310.5,-228.4 317.5,-228.4"/>
</g>
<!-- SendNotificationToWallet -->
<g id="node7" class="node">
<title>SendNotificationToWallet</title>
<polygon fill="none" stroke="black" points="341,-120.5 287,-120.5 287,-82.5 341,-82.5 341,-120.5"/>
<text text-anchor="middle" x="314" y="-105.3" font-family="Times,serif" font-size="14.00">Notify</text>
<text text-anchor="middle" x="314" y="-90.3" font-family="Times,serif" font-size="14.00">Wallet</text>
</g>
<!-- SendDeathUpdatesToOracleContract&#45;&gt;SendNotificationToWallet -->
<g id="edge6" class="edge">
<title>SendDeathUpdatesToOracleContract&#45;&gt;SendNotificationToWallet</title>
<path fill="none" stroke="black" d="M314,-179.59C314,-165.76 314,-146.57 314,-130.8"/>
<polygon fill="black" stroke="black" points="317.5,-130.53 314,-120.53 310.5,-130.53 317.5,-130.53"/>
</g>
<!-- SetDeathReportedDate -->
<g id="node8" class="node">
<title>SetDeathReportedDate</title>
<polygon fill="none" stroke="black" points="351,-38 277,-38 277,0 351,0 351,-38"/>
<text text-anchor="middle" x="314" y="-22.8" font-family="Times,serif" font-size="14.00">Set death</text>
<text text-anchor="middle" x="314" y="-7.8" font-family="Times,serif" font-size="14.00">timestamp</text>
</g>
<!-- SendNotificationToWallet&#45;&gt;SetDeathReportedDate -->
<g id="edge7" class="edge">
<title>SendNotificationToWallet&#45;&gt;SetDeathReportedDate</title>
<path fill="none" stroke="black" d="M314,-82.23C314,-72.25 314,-59.66 314,-48.43"/>
<polygon fill="black" stroke="black" points="317.5,-48.19 314,-38.19 310.5,-48.19 317.5,-48.19"/>
</g>
<!-- report -->
<g id="node9" class="node">
<title>report</title>
<ellipse fill="none" stroke="black" cx="122" cy="-610.87" rx="43.68" ry="26.74"/>
<text text-anchor="middle" x="122" y="-614.67" font-family="Times,serif" font-size="14.00">I&#39;m not</text>
<text text-anchor="middle" x="122" y="-599.67" font-family="Times,serif" font-size="14.00">dead yet</text>
</g>
<!-- checkOwnerKey -->
<g id="node11" class="node">
<title>checkOwnerKey</title>
<polygon fill="none" stroke="black" points="181,-547 125,-494 181,-441 237,-494 181,-547"/>
<text text-anchor="middle" x="181" y="-505.3" font-family="Times,serif" font-size="14.00">Sender</text>
<text text-anchor="middle" x="181" y="-490.3" font-family="Times,serif" font-size="14.00">is</text>
<text text-anchor="middle" x="181" y="-475.3" font-family="Times,serif" font-size="14.00">owner?</text>
</g>
<!-- report&#45;&gt;checkOwnerKey -->
<g id="edge8" class="edge">
<title>report&#45;&gt;checkOwnerKey</title>
<path fill="none" stroke="black" d="M134.8,-584.94C141.66,-571.6 150.31,-554.75 158.26,-539.26"/>
<polygon fill="black" stroke="black" points="161.4,-540.83 162.85,-530.34 155.17,-537.63 161.4,-540.83"/>
</g>
<!-- other -->
<g id="node10" class="node">
<title>other</title>
<ellipse fill="none" stroke="black" cx="240" cy="-610.87" rx="56.64" ry="26.74"/>
<text text-anchor="middle" x="240" y="-614.67" font-family="Times,serif" font-size="14.00">Other</text>
<text text-anchor="middle" x="240" y="-599.67" font-family="Times,serif" font-size="14.00">interactions</text>
</g>
<!-- other&#45;&gt;checkOwnerKey -->
<g id="edge9" class="edge">
<title>other&#45;&gt;checkOwnerKey</title>
<path fill="none" stroke="black" d="M227.05,-584.66C220.25,-571.43 211.72,-554.81 203.86,-539.5"/>
<polygon fill="black" stroke="black" points="206.75,-537.47 199.06,-530.17 200.52,-540.67 206.75,-537.47"/>
</g>
<!-- updateLiveliness -->
<g id="node12" class="node">
<title>updateLiveliness</title>
<polygon fill="none" stroke="black" points="242.5,-356 119.5,-356 119.5,-318 242.5,-318 242.5,-356"/>
<text text-anchor="middle" x="181" y="-340.8" font-family="Times,serif" font-size="14.00">Clear death</text>
<text text-anchor="middle" x="181" y="-325.8" font-family="Times,serif" font-size="14.00">reported timestamp</text>
</g>
<!-- checkOwnerKey&#45;&gt;updateLiveliness -->
<g id="edge10" class="edge">
<title>checkOwnerKey&#45;&gt;updateLiveliness</title>
<path fill="none" stroke="black" d="M181,-440.96C181,-415.94 181,-386.95 181,-366.11"/>
<polygon fill="black" stroke="black" points="184.5,-366.03 181,-356.03 177.5,-366.03 184.5,-366.03"/>
<text text-anchor="middle" x="190.5" y="-411.8" font-family="Times,serif" font-size="14.00">yes</text>
</g>
<!-- updateLiveliness&#45;&gt;AddUserToMonitoring -->
<g id="edge11" class="edge">
<title>updateLiveliness&#45;&gt;AddUserToMonitoring</title>
<path fill="none" stroke="black" d="M181.13,-317.94C181.3,-295.08 181.59,-255.43 181.79,-228.48"/>
<polygon fill="black" stroke="black" points="185.29,-228.16 181.87,-218.13 178.29,-228.11 185.29,-228.16"/>
</g>
<!-- ownerIsDeceased -->
<g id="node13" class="node">
<title>ownerIsDeceased</title>
<ellipse fill="none" stroke="black" cx="513" cy="-610.87" rx="50.41" ry="26.74"/>
<text text-anchor="middle" x="513" y="-614.67" font-family="Times,serif" font-size="14.00">Owner is</text>
<text text-anchor="middle" x="513" y="-599.67" font-family="Times,serif" font-size="14.00">deceased?</text>
</g>
<!-- ownerReportedDead -->
<g id="node14" class="node">
<title>ownerReportedDead</title>
<polygon fill="none" stroke="black" points="513,-532 403,-494 513,-456 623,-494 513,-532"/>
<text text-anchor="middle" x="513" y="-497.8" font-family="Times,serif" font-size="14.00">Death timestamp</text>
<text text-anchor="middle" x="513" y="-482.8" font-family="Times,serif" font-size="14.00">is set</text>
</g>
<!-- ownerIsDeceased&#45;&gt;ownerReportedDead -->
<g id="edge12" class="edge">
<title>ownerIsDeceased&#45;&gt;ownerReportedDead</title>
<path fill="none" stroke="black" d="M513,-583.8C513,-571.55 513,-556.56 513,-542.4"/>
<polygon fill="black" stroke="black" points="516.5,-542.29 513,-532.29 509.5,-542.29 516.5,-542.29"/>
</g>
<!-- deathReportAged -->
<g id="node15" class="node">
<title>deathReportAged</title>
<polygon fill="none" stroke="black" points="513,-390 385,-337 513,-284 641,-337 513,-390"/>
<text text-anchor="middle" x="513" y="-348.3" font-family="Times,serif" font-size="14.00">Age of</text>
<text text-anchor="middle" x="513" y="-333.3" font-family="Times,serif" font-size="14.00">death report exceeds</text>
<text text-anchor="middle" x="513" y="-318.3" font-family="Times,serif" font-size="14.00">LMS timeout</text>
</g>
<!-- ownerReportedDead&#45;&gt;deathReportAged -->
<g id="edge13" class="edge">
<title>ownerReportedDead&#45;&gt;deathReportAged</title>
<path fill="none" stroke="black" d="M513,-455.87C513,-439.17 513,-419 513,-400.1"/>
<polygon fill="black" stroke="black" points="516.5,-400.06 513,-390.06 509.5,-400.06 516.5,-400.06"/>
<text text-anchor="middle" x="522.5" y="-411.8" font-family="Times,serif" font-size="14.00">yes</text>
</g>
<!-- dead -->
<g id="node16" class="node">
<title>dead</title>
<ellipse fill="none" stroke="black" cx="513" cy="-199" rx="27.1" ry="18"/>
<text text-anchor="middle" x="513" y="-195.3" font-family="Times,serif" font-size="14.00">dead</text>
</g>
<!-- deathReportAged&#45;&gt;dead -->
<g id="edge14" class="edge">
<title>deathReportAged&#45;&gt;dead</title>
<path fill="none" stroke="black" d="M513,-283.81C513,-264.58 513,-243.56 513,-227.38"/>
<polygon fill="black" stroke="black" points="516.5,-227.04 513,-217.04 509.5,-227.04 516.5,-227.04"/>
<text text-anchor="middle" x="522.5" y="-254.8" font-family="Times,serif" font-size="14.00">yes</text>
</g>
</g>
</svg>
