<?xml version="1.0" encoding="UTF-8" standalone="no"?>
<!DOCTYPE svg PUBLIC "-//W3C//DTD SVG 1.1//EN"
 "http://www.w3.org/Graphics/SVG/1.1/DTD/svg11.dtd">
<!-- Generated by graphviz version 2.44.0 (20200408.0750)
 -->
<!-- Title: Onboarding Pages: 1 -->
<svg width="177pt" height="886pt"
 viewBox="0.00 0.00 177.00 886.00" xmlns="http://www.w3.org/2000/svg" xmlns:xlink="http://www.w3.org/1999/xlink">
<g id="graph0" class="graph" transform="scale(1 1) rotate(0) translate(4 882)">
<title>Onboarding</title>
<polygon fill="white" stroke="transparent" points="-4,4 -4,-882 173,-882 173,4 -4,4"/>
<!-- onboarding -->
<g id="node1" class="node">
<title>onboarding</title>
<ellipse fill="none" stroke="black" cx="108" cy="-860" rx="52.79" ry="18"/>
<text text-anchor="middle" x="108" y="-856.3" font-family="Times,serif" font-size="14.00">Onboarding</text>
</g>
<!-- form1 -->
<g id="node3" class="node">
<title>form1</title>
<polygon fill="none" stroke="black" points="162.5,-805 53.5,-805 53.5,-722 162.5,-722 162.5,-805"/>
<text text-anchor="middle" x="108" y="-789.8" font-family="Times,serif" font-size="14.00">Collect executor,</text>
<text text-anchor="middle" x="108" y="-774.8" font-family="Times,serif" font-size="14.00">beneficiaries,</text>
<text text-anchor="middle" x="108" y="-759.8" font-family="Times,serif" font-size="14.00">and liveliness</text>
<text text-anchor="middle" x="108" y="-744.8" font-family="Times,serif" font-size="14.00">monitoring</text>
<text text-anchor="middle" x="108" y="-729.8" font-family="Times,serif" font-size="14.00">strategy</text>
</g>
<!-- onboarding&#45;&gt;form1 -->
<g id="edge1" class="edge">
<title>onboarding&#45;&gt;form1</title>
<path fill="none" stroke="black" d="M108,-841.67C108,-834.15 108,-824.93 108,-815.5"/>
<polygon fill="black" stroke="black" points="111.5,-815.26 108,-805.26 104.5,-815.26 111.5,-815.26"/>
</g>
<!-- done -->
<g id="node2" class="node">
<title>done</title>
<ellipse fill="none" stroke="black" cx="103" cy="-18" rx="29.8" ry="18"/>
<text text-anchor="middle" x="103" y="-14.3" font-family="Times,serif" font-size="14.00">Done</text>
</g>
<!-- monitortype -->
<g id="node4" class="node">
<title>monitortype</title>
<polygon fill="none" stroke="black" points="108,-685 55,-632 108,-579 161,-632 108,-685"/>
<text text-anchor="middle" x="108" y="-643.3" font-family="Times,serif" font-size="14.00">LMS</text>
<text text-anchor="middle" x="108" y="-628.3" font-family="Times,serif" font-size="14.00">or</text>
<text text-anchor="middle" x="108" y="-613.3" font-family="Times,serif" font-size="14.00">DMS?</text>
</g>
<!-- form1&#45;&gt;monitortype -->
<g id="edge2" class="edge">
<title>form1&#45;&gt;monitortype</title>
<path fill="none" stroke="black" d="M108,-721.88C108,-713.47 108,-704.43 108,-695.45"/>
<polygon fill="black" stroke="black" points="111.5,-695.37 108,-685.37 104.5,-695.37 111.5,-695.37"/>
</g>
<!-- paymentform -->
<g id="node5" class="node">
<title>paymentform</title>
<polygon fill="none" stroke="black" points="104,-528 40,-528 40,-490 104,-490 104,-528"/>
<text text-anchor="middle" x="72" y="-512.8" font-family="Times,serif" font-size="14.00">Collect</text>
<text text-anchor="middle" x="72" y="-497.8" font-family="Times,serif" font-size="14.00">payment</text>
</g>
<!-- monitortype&#45;&gt;paymentform -->
<g id="edge3" class="edge">
<title>monitortype&#45;&gt;paymentform</title>
<path fill="none" stroke="black" d="M96.01,-590.71C90.84,-573.34 84.93,-553.46 80.26,-537.78"/>
<polygon fill="black" stroke="black" points="83.6,-536.73 77.4,-528.14 76.9,-538.73 83.6,-536.73"/>
<text text-anchor="middle" x="101.5" y="-549.8" font-family="Times,serif" font-size="14.00">LMS</text>
</g>
<!-- makeoracle -->
<g id="node9" class="node">
<title>makeoracle</title>
<polygon fill="none" stroke="black" points="156.5,-186 49.5,-186 49.5,-148 156.5,-148 156.5,-186"/>
<text text-anchor="middle" x="103" y="-170.8" font-family="Times,serif" font-size="14.00">Configure oracle</text>
<text text-anchor="middle" x="103" y="-155.8" font-family="Times,serif" font-size="14.00">contract</text>
</g>
<!-- monitortype&#45;&gt;makeoracle -->
<g id="edge4" class="edge">
<title>monitortype&#45;&gt;makeoracle</title>
<path fill="none" stroke="black" d="M122.38,-593.17C130.08,-569.61 138,-538.46 138,-510 138,-510 138,-510 138,-248.5 138,-229.57 129.76,-210.06 121.28,-194.98"/>
<polygon fill="black" stroke="black" points="124.17,-193 116.03,-186.22 118.16,-196.6 124.17,-193"/>
<text text-anchor="middle" x="153.5" y="-370.8" font-family="Times,serif" font-size="14.00">DMS</text>
</g>
<!-- form2 -->
<g id="node6" class="node">
<title>form2</title>
<polygon fill="none" stroke="black" points="110,-453 0,-453 0,-400 110,-400 110,-453"/>
<text text-anchor="middle" x="55" y="-437.8" font-family="Times,serif" font-size="14.00">Collect</text>
<text text-anchor="middle" x="55" y="-422.8" font-family="Times,serif" font-size="14.00">monitoring/KYC</text>
<text text-anchor="middle" x="55" y="-407.8" font-family="Times,serif" font-size="14.00">data</text>
</g>
<!-- paymentform&#45;&gt;form2 -->
<g id="edge5" class="edge">
<title>paymentform&#45;&gt;form2</title>
<path fill="none" stroke="black" d="M68.14,-489.73C66.46,-481.76 64.43,-472.13 62.47,-462.85"/>
<polygon fill="black" stroke="black" points="65.88,-462.08 60.39,-453.02 59.03,-463.52 65.88,-462.08"/>
</g>
<!-- kyc -->
<g id="node7" class="node">
<title>kyc</title>
<polygon fill="none" stroke="black" points="106,-349 26,-349 26,-313 106,-313 106,-349"/>
<text text-anchor="middle" x="66" y="-327.3" font-family="Times,serif" font-size="14.00">KYC check</text>
</g>
<!-- form2&#45;&gt;kyc -->
<g id="edge6" class="edge">
<title>form2&#45;&gt;kyc</title>
<path fill="none" stroke="black" d="M58.01,-399.95C59.49,-387.36 61.27,-372.17 62.78,-359.35"/>
<polygon fill="black" stroke="black" points="66.28,-359.59 63.97,-349.24 59.33,-358.77 66.28,-359.59"/>
</g>
<!-- configmonitor -->
<g id="node8" class="node">
<title>configmonitor</title>
<polygon fill="none" stroke="black" points="107.5,-276 28.5,-276 28.5,-223 107.5,-223 107.5,-276"/>
<text text-anchor="middle" x="68" y="-260.8" font-family="Times,serif" font-size="14.00">Configure</text>
<text text-anchor="middle" x="68" y="-245.8" font-family="Times,serif" font-size="14.00">LMS</text>
<text text-anchor="middle" x="68" y="-230.8" font-family="Times,serif" font-size="14.00">Monitoring</text>
</g>
<!-- kyc&#45;&gt;configmonitor -->
<g id="edge7" class="edge">
<title>kyc&#45;&gt;configmonitor</title>
<path fill="none" stroke="black" d="M66.43,-312.75C66.63,-304.99 66.87,-295.51 67.1,-286.32"/>
<polygon fill="black" stroke="black" points="70.6,-286.26 67.35,-276.18 63.6,-286.08 70.6,-286.26"/>
</g>
<!-- configmonitor&#45;&gt;makeoracle -->
<g id="edge8" class="edge">
<title>configmonitor&#45;&gt;makeoracle</title>
<path fill="none" stroke="black" d="M79.27,-222.59C82.98,-214.04 87.13,-204.5 90.91,-195.81"/>
<polygon fill="black" stroke="black" points="94.19,-197.03 94.97,-186.47 87.77,-194.24 94.19,-197.03"/>
</g>
<!-- makewallet -->
<g id="node10" class="node">
<title>makewallet</title>
<polygon fill="none" stroke="black" points="156.5,-111 49.5,-111 49.5,-73 156.5,-73 156.5,-111"/>
<text text-anchor="middle" x="103" y="-95.8" font-family="Times,serif" font-size="14.00">Configure wallet</text>
<text text-anchor="middle" x="103" y="-80.8" font-family="Times,serif" font-size="14.00">contract</text>
</g>
<!-- makeoracle&#45;&gt;makewallet -->
<g id="edge9" class="edge">
<title>makeoracle&#45;&gt;makewallet</title>
<path fill="none" stroke="black" d="M103,-147.96C103,-139.88 103,-130.18 103,-121.18"/>
<polygon fill="black" stroke="black" points="106.5,-121.09 103,-111.09 99.5,-121.09 106.5,-121.09"/>
</g>
<!-- makewallet&#45;&gt;done -->
<g id="edge10" class="edge">
<title>makewallet&#45;&gt;done</title>
<path fill="none" stroke="black" d="M103,-72.83C103,-64.89 103,-55.41 103,-46.63"/>
<polygon fill="black" stroke="black" points="106.5,-46.42 103,-36.42 99.5,-46.42 106.5,-46.42"/>
</g>
</g>
</svg>
