<?xml version="1.0" encoding="UTF-8" standalone="no"?>
<!DOCTYPE svg PUBLIC "-//W3C//DTD SVG 1.1//EN"
 "http://www.w3.org/Graphics/SVG/1.1/DTD/svg11.dtd">
<!-- Generated by graphviz version 2.44.0 (20200408.0750)
 -->
<!-- Title: PostDeathWorkflow Pages: 1 -->
<svg width="570pt" height="578pt"
 viewBox="0.00 0.00 570.00 577.74" xmlns="http://www.w3.org/2000/svg" xmlns:xlink="http://www.w3.org/1999/xlink">
<g id="graph0" class="graph" transform="scale(1 1) rotate(0) translate(4 573.74)">
<title>PostDeathWorkflow</title>
<polygon fill="white" stroke="transparent" points="-4,4 -4,-573.74 566,-573.74 566,4 -4,4"/>
<!-- initiateExecutorship -->
<g id="node1" class="node">
<title>initiateExecutorship</title>
<ellipse fill="none" stroke="black" cx="74" cy="-542.87" rx="62.45" ry="26.74"/>
<text text-anchor="middle" x="74" y="-546.67" font-family="Times,serif" font-size="14.00">Initiate</text>
<text text-anchor="middle" x="74" y="-531.67" font-family="Times,serif" font-size="14.00">Executorship</text>
</g>
<!-- checkExecutorKey -->
<g id="node2" class="node">
<title>checkExecutorKey</title>
<polygon fill="none" stroke="black" points="74,-479 5,-426 74,-373 143,-426 74,-479"/>
<text text-anchor="middle" x="74" y="-437.3" font-family="Times,serif" font-size="14.00">Sender</text>
<text text-anchor="middle" x="74" y="-422.3" font-family="Times,serif" font-size="14.00">is</text>
<text text-anchor="middle" x="74" y="-407.3" font-family="Times,serif" font-size="14.00">executor?</text>
</g>
<!-- initiateExecutorship&#45;&gt;checkExecutorKey -->
<g id="edge1" class="edge">
<title>initiateExecutorship&#45;&gt;checkExecutorKey</title>
<path fill="none" stroke="black" d="M74,-515.8C74,-507.83 74,-498.7 74,-489.39"/>
<polygon fill="black" stroke="black" points="77.5,-489.26 74,-479.26 70.5,-489.26 77.5,-489.26"/>
</g>
<!-- isDead -->
<g id="node3" class="node">
<title>isDead</title>
<polygon fill="none" stroke="black" points="74,-322 0,-284 74,-246 148,-284 74,-322"/>
<text text-anchor="middle" x="74" y="-287.8" font-family="Times,serif" font-size="14.00">Owner is</text>
<text text-anchor="middle" x="74" y="-272.8" font-family="Times,serif" font-size="14.00">Deceased?</text>
</g>
<!-- checkExecutorKey&#45;&gt;isDead -->
<g id="edge2" class="edge">
<title>checkExecutorKey&#45;&gt;isDead</title>
<path fill="none" stroke="black" d="M74,-372.87C74,-359.62 74,-345.45 74,-332.45"/>
<polygon fill="black" stroke="black" points="77.5,-332.31 74,-322.31 70.5,-332.31 77.5,-332.31"/>
<text text-anchor="middle" x="84.5" y="-343.8" font-family="Times,serif" font-size="14.00">Yes</text>
</g>
<!-- setExecutorStartTimestamp -->
<g id="node4" class="node">
<title>setExecutorStartTimestamp</title>
<polygon fill="none" stroke="black" points="116.5,-161 31.5,-161 31.5,-123 116.5,-123 116.5,-161"/>
<text text-anchor="middle" x="74" y="-145.8" font-family="Times,serif" font-size="14.00">Save current</text>
<text text-anchor="middle" x="74" y="-130.8" font-family="Times,serif" font-size="14.00">timestamp</text>
</g>
<!-- isDead&#45;&gt;setExecutorStartTimestamp -->
<g id="edge3" class="edge">
<title>isDead&#45;&gt;setExecutorStartTimestamp</title>
<path fill="none" stroke="black" d="M74,-245.85C74,-222.43 74,-192.66 74,-171.18"/>
<polygon fill="black" stroke="black" points="77.5,-171.08 74,-161.08 70.5,-171.08 77.5,-171.08"/>
<text text-anchor="middle" x="84.5" y="-216.8" font-family="Times,serif" font-size="14.00">Yes</text>
</g>
<!-- enableExecutorActions -->
<g id="node5" class="node">
<title>enableExecutorActions</title>
<polygon fill="none" stroke="black" points="126,-38 22,-38 22,0 126,0 126,-38"/>
<text text-anchor="middle" x="74" y="-22.8" font-family="Times,serif" font-size="14.00">Enable executor</text>
<text text-anchor="middle" x="74" y="-7.8" font-family="Times,serif" font-size="14.00">actions</text>
</g>
<!-- setExecutorStartTimestamp&#45;&gt;enableExecutorActions -->
<g id="edge4" class="edge">
<title>setExecutorStartTimestamp&#45;&gt;enableExecutorActions</title>
<path fill="none" stroke="black" d="M74,-122.89C74,-103.19 74,-71.46 74,-48.44"/>
<polygon fill="black" stroke="black" points="77.5,-48.24 74,-38.24 70.5,-48.24 77.5,-48.24"/>
</g>
<!-- enableDistribution -->
<g id="node6" class="node">
<title>enableDistribution</title>
<ellipse fill="none" stroke="black" cx="305" cy="-542.87" rx="57.97" ry="26.74"/>
<text text-anchor="middle" x="305" y="-546.67" font-family="Times,serif" font-size="14.00">Enable</text>
<text text-anchor="middle" x="305" y="-531.67" font-family="Times,serif" font-size="14.00">Distribution</text>
</g>
<!-- isStillDead -->
<g id="node7" class="node">
<title>isStillDead</title>
<polygon fill="none" stroke="black" points="305,-464 234,-426 305,-388 376,-426 305,-464"/>
<text text-anchor="middle" x="305" y="-429.8" font-family="Times,serif" font-size="14.00">Owner is</text>
<text text-anchor="middle" x="305" y="-414.8" font-family="Times,serif" font-size="14.00">deceased?</text>
</g>
<!-- enableDistribution&#45;&gt;isStillDead -->
<g id="edge5" class="edge">
<title>enableDistribution&#45;&gt;isStillDead</title>
<path fill="none" stroke="black" d="M305,-515.8C305,-503.55 305,-488.56 305,-474.4"/>
<polygon fill="black" stroke="black" points="308.5,-474.29 305,-464.29 301.5,-474.29 308.5,-474.29"/>
</g>
<!-- executorEnabledDistribution -->
<g id="node8" class="node">
<title>executorEnabledDistribution</title>
<polygon fill="none" stroke="black" points="305,-302 249.7,-284 305,-266 360.3,-284 305,-302"/>
<text text-anchor="middle" x="305" y="-280.3" font-family="Times,serif" font-size="14.00">Sender?</text>
</g>
<!-- isStillDead&#45;&gt;executorEnabledDistribution -->
<g id="edge6" class="edge">
<title>isStillDead&#45;&gt;executorEnabledDistribution</title>
<path fill="none" stroke="black" d="M305,-387.85C305,-364.15 305,-333.95 305,-312.42"/>
<polygon fill="black" stroke="black" points="308.5,-312.32 305,-302.32 301.5,-312.32 308.5,-312.32"/>
<text text-anchor="middle" x="314.5" y="-343.8" font-family="Times,serif" font-size="14.00">yes</text>
</g>
<!-- updateOwnerKeyToHeirKey -->
<g id="node9" class="node">
<title>updateOwnerKeyToHeirKey</title>
<polygon fill="none" stroke="black" points="345,-37 195,-37 195,-1 345,-1 345,-37"/>
<text text-anchor="middle" x="270" y="-15.3" font-family="Times,serif" font-size="14.00">Replace owner with heir</text>
</g>
<!-- executorEnabledDistribution&#45;&gt;updateOwnerKeyToHeirKey -->
<g id="edge7" class="edge">
<title>executorEnabledDistribution&#45;&gt;updateOwnerKeyToHeirKey</title>
<path fill="none" stroke="black" d="M294.02,-269.4C281.49,-252.94 261.75,-223.82 254,-195 240.29,-144 252.43,-81.96 261.74,-47.13"/>
<polygon fill="black" stroke="black" points="265.18,-47.81 264.5,-37.23 258.44,-45.92 265.18,-47.81"/>
<text text-anchor="middle" x="278.5" y="-138.3" font-family="Times,serif" font-size="14.00">Executor</text>
</g>
<!-- executorMaxDurationExceeded -->
<g id="node10" class="node">
<title>executorMaxDurationExceeded</title>
<polygon fill="none" stroke="black" points="437,-195 312,-142 437,-89 562,-142 437,-195"/>
<text text-anchor="middle" x="437" y="-153.3" font-family="Times,serif" font-size="14.00">Age of</text>
<text text-anchor="middle" x="437" y="-138.3" font-family="Times,serif" font-size="14.00">executor timestamp</text>
<text text-anchor="middle" x="437" y="-123.3" font-family="Times,serif" font-size="14.00">exceeds max</text>
</g>
<!-- executorEnabledDistribution&#45;&gt;executorMaxDurationExceeded -->
<g id="edge8" class="edge">
<title>executorEnabledDistribution&#45;&gt;executorMaxDurationExceeded</title>
<path fill="none" stroke="black" d="M317.42,-269.83C334.97,-251.21 367.91,-216.28 394.77,-187.79"/>
<polygon fill="black" stroke="black" points="397.5,-189.99 401.81,-180.32 392.41,-185.19 397.5,-189.99"/>
<text text-anchor="middle" x="383.5" y="-216.8" font-family="Times,serif" font-size="14.00">Heir</text>
</g>
<!-- executorMaxDurationExceeded&#45;&gt;updateOwnerKeyToHeirKey -->
<g id="edge9" class="edge">
<title>executorMaxDurationExceeded&#45;&gt;updateOwnerKeyToHeirKey</title>
<path fill="none" stroke="black" d="M391.37,-107.94C362.91,-87.32 327,-61.3 301.65,-42.93"/>
<polygon fill="black" stroke="black" points="303.64,-40.05 293.48,-37.02 299.53,-45.72 303.64,-40.05"/>
<text text-anchor="middle" x="349.5" y="-59.8" font-family="Times,serif" font-size="14.00">Yes</text>
</g>
</g>
</svg>
